# xmcd CD database file
#
# Track frame offsets:
#	150
#	23030
#	43335
#
# Disc length: 883 seconds
#
# Revision: 0
# Processed by: cddbd v1.5.1PL2 Copyright (c) Steve Scherf et al.
# Submitted via: CDex 1.51
#
DISCID=1f037103
DTITLE=FLIP FLAP - ふたりの浜辺で
DYEAR=1998
DGENRE=JPop
TTITLE0=ふたりの浜辺で
TTITLE1=どうして
TTITLE2=ふたりの浜辺で（オリジナルカラオケ）
EXTD=YEAR: 1998
EXTT0=
EXTT1=
EXTT2=
PLAYORDER=
